<svg width="19" height="25" viewBox="0 0 19 25" fill="none" xmlns="http://www.w3.org/2000/svg">
<path d="M17.4444 8.81589C17.3232 8.90975 15.1849 10.1133 15.1849 12.7894C15.1849 15.8848 17.9058 16.9799 17.9873 17.007C17.9748 17.0738 17.555 18.5068 16.5527 19.9669C15.6589 21.2517 14.7255 22.5345 13.3056 22.5345C11.8856 22.5345 11.5201 21.7106 9.88091 21.7106C8.28344 21.7106 7.71545 22.5617 6.41659 22.5617C5.11774 22.5617 4.21146 21.3727 3.16945 19.9126C1.96247 18.1981 0.987284 15.5344 0.987284 13.0064C0.987284 8.95147 3.62676 6.80095 6.22448 6.80095C7.60478 6.80095 8.75537 7.70621 9.62197 7.70621C10.4468 7.70621 11.7331 6.74672 13.3035 6.74672C13.8986 6.74672 16.0369 6.80095 17.4444 8.81589ZM12.558 5.03006C13.2074 4.26038 13.6668 3.19243 13.6668 2.12447C13.6668 1.97637 13.6543 1.82619 13.6271 1.70521C12.5705 1.74484 11.3134 2.40815 10.5554 3.28629C9.96026 3.96211 9.4048 5.03006 9.4048 6.11262C9.4048 6.27532 9.43195 6.43801 9.44448 6.49016C9.5113 6.50267 9.61989 6.51728 9.72847 6.51728C10.6765 6.51728 11.8689 5.88318 12.558 5.03006Z" fill="#888888"/>
</svg>